<mxfile host="app.diagrams.net" modified="2022-11-18T01:45:45.119Z" agent="5.0 (Windows NT 10.0; Win64; x64) AppleWebKit/537.36 (KHTML, like Gecko) Chrome/106.0.0.0 Safari/537.36 OPR/92.0.0.0" etag="1cxy1JDWlCXXKXJWNfTO" version="20.5.3" type="github">
  <diagram id="kRqsOCaYbicmYBVgTPLm" name="Page-1">
    <mxGraphModel dx="1255" dy="449" grid="1" gridSize="10" guides="1" tooltips="1" connect="1" arrows="1" fold="1" page="1" pageScale="1" pageWidth="827" pageHeight="1169" math="0" shadow="0">
      <root>
        <mxCell id="0" />
        <mxCell id="1" parent="0" />
        <mxCell id="PxhW3glg8Rv6TpSXncMb-1" value="&lt;p style=&quot;margin:0px;margin-top:4px;text-align:center;&quot;&gt;&lt;i&gt;&amp;lt;&amp;lt;Interface&amp;gt;&amp;gt;&lt;/i&gt;&lt;br&gt;&lt;b&gt;Stereo_software&lt;/b&gt;&lt;/p&gt;&lt;hr size=&quot;1&quot;&gt;&lt;p style=&quot;margin:0px;margin-left:4px;&quot;&gt;N/A&lt;/p&gt;&lt;hr size=&quot;1&quot;&gt;&lt;p style=&quot;margin:0px;margin-left:4px;&quot;&gt;+ getOnOff():boolean&lt;/p&gt;&lt;p style=&quot;margin:0px;margin-left:4px;&quot;&gt;+ setOnOff(onoff: boolean):void&lt;/p&gt;&lt;p style=&quot;margin:0px;margin-left:4px;&quot;&gt;+ getVol():int&lt;/p&gt;&lt;p style=&quot;margin:0px;margin-left:4px;&quot;&gt;+ setVol(vol:int):void&lt;/p&gt;&lt;p style=&quot;margin:0px;margin-left:4px;&quot;&gt;+ getMode(): String&lt;br style=&quot;padding: 0px; margin: 0px;&quot;&gt;+ setMode(mode:String):void&lt;br&gt;&lt;/p&gt;&lt;p style=&quot;margin:0px;margin-left:4px;&quot;&gt;+ getSetOfSomething():ArrayList&amp;lt;String&amp;gt;&lt;/p&gt;&lt;p style=&quot;margin:0px;margin-left:4px;&quot;&gt;+ setSetOfSomething(array:ArrayList&amp;lt;String&amp;gt;):void&lt;/p&gt;" style="verticalAlign=top;align=left;overflow=fill;fontSize=12;fontFamily=Helvetica;html=1;" parent="1" vertex="1">
          <mxGeometry x="20" y="160" width="290" height="220" as="geometry" />
        </mxCell>
        <mxCell id="4bHquClLG_6svhKLVLeR-1" value="RadioMode" style="swimlane;fontStyle=1;align=center;verticalAlign=top;childLayout=stackLayout;horizontal=1;startSize=26;horizontalStack=0;resizeParent=1;resizeParentMax=0;resizeLast=0;collapsible=1;marginBottom=0;" vertex="1" parent="1">
          <mxGeometry x="-100" y="510" width="200" height="250" as="geometry" />
        </mxCell>
        <mxCell id="4bHquClLG_6svhKLVLeR-2" value="- onoff: boolean&#xa;- vol:int&#xa;- mode:String&#xa;- FMAM&#xa;- actualStation:float&#xa;- stations: ArrayList&lt;String&gt;&#xa;- favStations: ArrayList&lt;Integer&gt;" style="text;strokeColor=none;fillColor=none;align=left;verticalAlign=top;spacingLeft=4;spacingRight=4;overflow=hidden;rotatable=0;points=[[0,0.5],[1,0.5]];portConstraint=eastwest;" vertex="1" parent="4bHquClLG_6svhKLVLeR-1">
          <mxGeometry y="26" width="200" height="104" as="geometry" />
        </mxCell>
        <mxCell id="4bHquClLG_6svhKLVLeR-3" value="" style="line;strokeWidth=1;fillColor=none;align=left;verticalAlign=middle;spacingTop=-1;spacingLeft=3;spacingRight=3;rotatable=0;labelPosition=right;points=[];portConstraint=eastwest;strokeColor=inherit;" vertex="1" parent="4bHquClLG_6svhKLVLeR-1">
          <mxGeometry y="130" width="200" height="8" as="geometry" />
        </mxCell>
        <mxCell id="4bHquClLG_6svhKLVLeR-4" value="+ getFMAM():boolean&#xa;+ setFMAM(station:boolean):void&#xa;+ getActualStation():float&#xa;+ setActualStation(set:int):void&#xa;+ saveStation(station:void):void&#xa;+ loadStation(station:void):void&#xa;" style="text;strokeColor=none;fillColor=none;align=left;verticalAlign=top;spacingLeft=4;spacingRight=4;overflow=hidden;rotatable=0;points=[[0,0.5],[1,0.5]];portConstraint=eastwest;" vertex="1" parent="4bHquClLG_6svhKLVLeR-1">
          <mxGeometry y="138" width="200" height="112" as="geometry" />
        </mxCell>
        <mxCell id="4bHquClLG_6svhKLVLeR-5" value="ReproductionMode" style="swimlane;fontStyle=1;align=center;verticalAlign=top;childLayout=stackLayout;horizontal=1;startSize=26;horizontalStack=0;resizeParent=1;resizeParentMax=0;resizeLast=0;collapsible=1;marginBottom=0;" vertex="1" parent="1">
          <mxGeometry x="130" y="510" width="240" height="160" as="geometry" />
        </mxCell>
        <mxCell id="4bHquClLG_6svhKLVLeR-6" value="- onoff: boolean&#xa;- vol:int&#xa;- mode:String&#xa;- reproductionlist: ArrayList&lt;String&gt;&#xa;- actualsong:int" style="text;strokeColor=none;fillColor=none;align=left;verticalAlign=top;spacingLeft=4;spacingRight=4;overflow=hidden;rotatable=0;points=[[0,0.5],[1,0.5]];portConstraint=eastwest;" vertex="1" parent="4bHquClLG_6svhKLVLeR-5">
          <mxGeometry y="26" width="240" height="84" as="geometry" />
        </mxCell>
        <mxCell id="4bHquClLG_6svhKLVLeR-7" value="" style="line;strokeWidth=1;fillColor=none;align=left;verticalAlign=middle;spacingTop=-1;spacingLeft=3;spacingRight=3;rotatable=0;labelPosition=right;points=[];portConstraint=eastwest;strokeColor=inherit;" vertex="1" parent="4bHquClLG_6svhKLVLeR-5">
          <mxGeometry y="110" width="240" height="8" as="geometry" />
        </mxCell>
        <mxCell id="4bHquClLG_6svhKLVLeR-8" value="+ changeSong(set:int):void&#xa;+ listenSong():String" style="text;strokeColor=none;fillColor=none;align=left;verticalAlign=top;spacingLeft=4;spacingRight=4;overflow=hidden;rotatable=0;points=[[0,0.5],[1,0.5]];portConstraint=eastwest;" vertex="1" parent="4bHquClLG_6svhKLVLeR-5">
          <mxGeometry y="118" width="240" height="42" as="geometry" />
        </mxCell>
        <mxCell id="4bHquClLG_6svhKLVLeR-11" style="edgeStyle=orthogonalEdgeStyle;rounded=0;orthogonalLoop=1;jettySize=auto;html=1;" edge="1" parent="1" source="4bHquClLG_6svhKLVLeR-10" target="PxhW3glg8Rv6TpSXncMb-1">
          <mxGeometry relative="1" as="geometry" />
        </mxCell>
        <mxCell id="4bHquClLG_6svhKLVLeR-10" value="&lt;h1&gt;SetOfSomething&lt;/h1&gt;&lt;p&gt;Es la idea de un arraylist general que se pueda usar para modelar las emisoras, lista de reproducciÃ³n o contactos.&lt;/p&gt;" style="text;html=1;strokeColor=none;fillColor=none;spacing=5;spacingTop=-20;whiteSpace=wrap;overflow=hidden;rounded=0;" vertex="1" parent="1">
          <mxGeometry x="414" y="230" width="190" height="120" as="geometry" />
        </mxCell>
        <mxCell id="4bHquClLG_6svhKLVLeR-13" value="" style="endArrow=block;dashed=1;endFill=0;endSize=12;html=1;rounded=0;entryX=0.5;entryY=1;entryDx=0;entryDy=0;exitX=0.5;exitY=0;exitDx=0;exitDy=0;" edge="1" parent="1" source="4bHquClLG_6svhKLVLeR-1" target="PxhW3glg8Rv6TpSXncMb-1">
          <mxGeometry width="160" relative="1" as="geometry">
            <mxPoint x="60" y="440" as="sourcePoint" />
            <mxPoint x="220" y="440" as="targetPoint" />
          </mxGeometry>
        </mxCell>
        <mxCell id="4bHquClLG_6svhKLVLeR-14" value="" style="endArrow=block;dashed=1;endFill=0;endSize=12;html=1;rounded=0;entryX=0.5;entryY=1;entryDx=0;entryDy=0;exitX=0.5;exitY=0;exitDx=0;exitDy=0;" edge="1" parent="1" source="4bHquClLG_6svhKLVLeR-5" target="PxhW3glg8Rv6TpSXncMb-1">
          <mxGeometry width="160" relative="1" as="geometry">
            <mxPoint x="10" y="520" as="sourcePoint" />
            <mxPoint x="175" y="390" as="targetPoint" />
          </mxGeometry>
        </mxCell>
        <mxCell id="4bHquClLG_6svhKLVLeR-19" value="" style="endArrow=block;dashed=1;endFill=0;endSize=12;html=1;rounded=0;entryX=0.5;entryY=1;entryDx=0;entryDy=0;exitX=0.5;exitY=0;exitDx=0;exitDy=0;" edge="1" parent="1" source="4bHquClLG_6svhKLVLeR-21" target="PxhW3glg8Rv6TpSXncMb-1">
          <mxGeometry width="160" relative="1" as="geometry">
            <mxPoint x="529" y="446" as="sourcePoint" />
            <mxPoint x="175" y="390" as="targetPoint" />
          </mxGeometry>
        </mxCell>
        <mxCell id="4bHquClLG_6svhKLVLeR-21" value="&lt;p style=&quot;margin:0px;margin-top:4px;text-align:center;&quot;&gt;&lt;i&gt;&amp;lt;&amp;lt;Interface&amp;gt;&amp;gt;&lt;/i&gt;&lt;br&gt;&lt;b&gt;PhoneMode&lt;/b&gt;&lt;/p&gt;&lt;hr size=&quot;1&quot;&gt;&lt;p style=&quot;margin:0px;margin-left:4px;&quot;&gt;- onoff: boolean&lt;br style=&quot;padding: 0px; margin: 0px;&quot;&gt;- vol:int&lt;br style=&quot;padding: 0px; margin: 0px;&quot;&gt;- mode:String&lt;br style=&quot;padding: 0px; margin: 0px;&quot;&gt;- contactlist: ArrayList&amp;lt;String&amp;gt;&lt;br style=&quot;padding: 0px; margin: 0px;&quot;&gt;- actualPersonInCall:int&lt;br style=&quot;padding: 0px; margin: 0px;&quot;&gt;- connectphone: boolean&lt;br style=&quot;padding: 0px; margin: 0px;&quot;&gt;- incall:boolean&lt;/p&gt;&lt;div style=&quot;padding: 0px; margin: 0px;&quot;&gt;&lt;br style=&quot;padding: 0px; margin: 0px;&quot;&gt;&lt;/div&gt;&lt;hr size=&quot;1&quot;&gt;&lt;p style=&quot;margin:0px;margin-left:4px;&quot;&gt;+ callContact(set:int):void&lt;br style=&quot;padding: 0px; margin: 0px;&quot;&gt;+ getPersonaInCall():int&lt;br style=&quot;padding: 0px; margin: 0px;&quot;&gt;+ setConnectPhone(set:boolean):void&lt;br style=&quot;padding: 0px; margin: 0px;&quot;&gt;+ setInCall(set:boolean):void&lt;br style=&quot;padding: 0px; margin: 0px;&quot;&gt;+ getInCall():boolean&lt;br&gt;&lt;/p&gt;" style="verticalAlign=top;align=left;overflow=fill;fontSize=12;fontFamily=Helvetica;html=1;" vertex="1" parent="1">
          <mxGeometry x="420" y="510" width="220" height="270" as="geometry" />
        </mxCell>
        <mxCell id="4bHquClLG_6svhKLVLeR-22" value="VehicleA" style="swimlane;fontStyle=1;align=center;verticalAlign=top;childLayout=stackLayout;horizontal=1;startSize=26;horizontalStack=0;resizeParent=1;resizeParentMax=0;resizeLast=0;collapsible=1;marginBottom=0;" vertex="1" parent="1">
          <mxGeometry x="254" y="870" width="210" height="110" as="geometry" />
        </mxCell>
        <mxCell id="4bHquClLG_6svhKLVLeR-23" value="- speaker: boolean" style="text;strokeColor=none;fillColor=none;align=left;verticalAlign=top;spacingLeft=4;spacingRight=4;overflow=hidden;rotatable=0;points=[[0,0.5],[1,0.5]];portConstraint=eastwest;" vertex="1" parent="4bHquClLG_6svhKLVLeR-22">
          <mxGeometry y="26" width="210" height="26" as="geometry" />
        </mxCell>
        <mxCell id="4bHquClLG_6svhKLVLeR-24" value="" style="line;strokeWidth=1;fillColor=none;align=left;verticalAlign=middle;spacingTop=-1;spacingLeft=3;spacingRight=3;rotatable=0;labelPosition=right;points=[];portConstraint=eastwest;strokeColor=inherit;" vertex="1" parent="4bHquClLG_6svhKLVLeR-22">
          <mxGeometry y="52" width="210" height="8" as="geometry" />
        </mxCell>
        <mxCell id="4bHquClLG_6svhKLVLeR-25" value="+ getSpeaker():boolean&#xa;+ setSpeaker(speaker:boolean):void" style="text;strokeColor=none;fillColor=none;align=left;verticalAlign=top;spacingLeft=4;spacingRight=4;overflow=hidden;rotatable=0;points=[[0,0.5],[1,0.5]];portConstraint=eastwest;" vertex="1" parent="4bHquClLG_6svhKLVLeR-22">
          <mxGeometry y="60" width="210" height="50" as="geometry" />
        </mxCell>
        <mxCell id="4bHquClLG_6svhKLVLeR-26" value="VehicleB" style="swimlane;fontStyle=1;align=center;verticalAlign=top;childLayout=stackLayout;horizontal=1;startSize=26;horizontalStack=0;resizeParent=1;resizeParentMax=0;resizeLast=0;collapsible=1;marginBottom=0;" vertex="1" parent="1">
          <mxGeometry y="800" width="160" height="120" as="geometry" />
        </mxCell>
        <mxCell id="4bHquClLG_6svhKLVLeR-27" value="- lastContact: int" style="text;strokeColor=none;fillColor=none;align=left;verticalAlign=top;spacingLeft=4;spacingRight=4;overflow=hidden;rotatable=0;points=[[0,0.5],[1,0.5]];portConstraint=eastwest;" vertex="1" parent="4bHquClLG_6svhKLVLeR-26">
          <mxGeometry y="26" width="160" height="26" as="geometry" />
        </mxCell>
        <mxCell id="4bHquClLG_6svhKLVLeR-28" value="" style="line;strokeWidth=1;fillColor=none;align=left;verticalAlign=middle;spacingTop=-1;spacingLeft=3;spacingRight=3;rotatable=0;labelPosition=right;points=[];portConstraint=eastwest;strokeColor=inherit;" vertex="1" parent="4bHquClLG_6svhKLVLeR-26">
          <mxGeometry y="52" width="160" height="8" as="geometry" />
        </mxCell>
        <mxCell id="4bHquClLG_6svhKLVLeR-29" value="+ getLastContact():int&#xa;+ setLastContact():int" style="text;strokeColor=none;fillColor=none;align=left;verticalAlign=top;spacingLeft=4;spacingRight=4;overflow=hidden;rotatable=0;points=[[0,0.5],[1,0.5]];portConstraint=eastwest;" vertex="1" parent="4bHquClLG_6svhKLVLeR-26">
          <mxGeometry y="60" width="160" height="60" as="geometry" />
        </mxCell>
        <mxCell id="4bHquClLG_6svhKLVLeR-30" value="VehicleC" style="swimlane;fontStyle=1;align=center;verticalAlign=top;childLayout=stackLayout;horizontal=1;startSize=26;horizontalStack=0;resizeParent=1;resizeParentMax=0;resizeLast=0;collapsible=1;marginBottom=0;" vertex="1" parent="1">
          <mxGeometry x="530" y="840" width="160" height="120" as="geometry" />
        </mxCell>
        <mxCell id="4bHquClLG_6svhKLVLeR-31" value="- callinhold: boolean" style="text;strokeColor=none;fillColor=none;align=left;verticalAlign=top;spacingLeft=4;spacingRight=4;overflow=hidden;rotatable=0;points=[[0,0.5],[1,0.5]];portConstraint=eastwest;" vertex="1" parent="4bHquClLG_6svhKLVLeR-30">
          <mxGeometry y="26" width="160" height="26" as="geometry" />
        </mxCell>
        <mxCell id="4bHquClLG_6svhKLVLeR-32" value="" style="line;strokeWidth=1;fillColor=none;align=left;verticalAlign=middle;spacingTop=-1;spacingLeft=3;spacingRight=3;rotatable=0;labelPosition=right;points=[];portConstraint=eastwest;strokeColor=inherit;" vertex="1" parent="4bHquClLG_6svhKLVLeR-30">
          <mxGeometry y="52" width="160" height="8" as="geometry" />
        </mxCell>
        <mxCell id="4bHquClLG_6svhKLVLeR-33" value="+ getCallInHold():boolean&#xa;+ setCallInHold():boolean" style="text;strokeColor=none;fillColor=none;align=left;verticalAlign=top;spacingLeft=4;spacingRight=4;overflow=hidden;rotatable=0;points=[[0,0.5],[1,0.5]];portConstraint=eastwest;" vertex="1" parent="4bHquClLG_6svhKLVLeR-30">
          <mxGeometry y="60" width="160" height="60" as="geometry" />
        </mxCell>
        <mxCell id="4bHquClLG_6svhKLVLeR-34" value="" style="endArrow=block;dashed=1;endFill=0;endSize=12;html=1;rounded=0;entryX=0.75;entryY=1;entryDx=0;entryDy=0;exitX=0.5;exitY=0;exitDx=0;exitDy=0;" edge="1" parent="1" source="4bHquClLG_6svhKLVLeR-30" target="4bHquClLG_6svhKLVLeR-21">
          <mxGeometry width="160" relative="1" as="geometry">
            <mxPoint x="540" y="520" as="sourcePoint" />
            <mxPoint x="175" y="390" as="targetPoint" />
          </mxGeometry>
        </mxCell>
        <mxCell id="4bHquClLG_6svhKLVLeR-36" value="Extends" style="endArrow=block;endSize=16;endFill=0;html=1;rounded=0;entryX=1;entryY=0.5;entryDx=0;entryDy=0;exitX=0;exitY=0.5;exitDx=0;exitDy=0;" edge="1" parent="1" source="4bHquClLG_6svhKLVLeR-31" target="4bHquClLG_6svhKLVLeR-8">
          <mxGeometry width="160" relative="1" as="geometry">
            <mxPoint x="330" y="700" as="sourcePoint" />
            <mxPoint x="490" y="700" as="targetPoint" />
          </mxGeometry>
        </mxCell>
        <mxCell id="4bHquClLG_6svhKLVLeR-37" value="Extends" style="endArrow=block;endSize=16;endFill=0;html=1;rounded=0;entryX=1;entryY=0.5;entryDx=0;entryDy=0;exitX=0;exitY=0.5;exitDx=0;exitDy=0;" edge="1" parent="1" source="4bHquClLG_6svhKLVLeR-31" target="4bHquClLG_6svhKLVLeR-4">
          <mxGeometry width="160" relative="1" as="geometry">
            <mxPoint x="540" y="889" as="sourcePoint" />
            <mxPoint x="380" y="659" as="targetPoint" />
          </mxGeometry>
        </mxCell>
        <mxCell id="4bHquClLG_6svhKLVLeR-38" value="Extends" style="endArrow=block;endSize=16;endFill=0;html=1;rounded=0;entryX=0.575;entryY=1.024;entryDx=0;entryDy=0;exitX=0.5;exitY=0;exitDx=0;exitDy=0;entryPerimeter=0;" edge="1" parent="1" source="4bHquClLG_6svhKLVLeR-26" target="4bHquClLG_6svhKLVLeR-8">
          <mxGeometry width="160" relative="1" as="geometry">
            <mxPoint x="540" y="889" as="sourcePoint" />
            <mxPoint x="110" y="714" as="targetPoint" />
          </mxGeometry>
        </mxCell>
        <mxCell id="4bHquClLG_6svhKLVLeR-39" value="Extends" style="endArrow=block;endSize=16;endFill=0;html=1;rounded=0;entryX=0.895;entryY=0.991;entryDx=0;entryDy=0;entryPerimeter=0;" edge="1" parent="1" target="4bHquClLG_6svhKLVLeR-4">
          <mxGeometry width="160" relative="1" as="geometry">
            <mxPoint x="80" y="800" as="sourcePoint" />
            <mxPoint x="278" y="681.008" as="targetPoint" />
          </mxGeometry>
        </mxCell>
        <mxCell id="4bHquClLG_6svhKLVLeR-40" value="" style="endArrow=block;dashed=1;endFill=0;endSize=12;html=1;rounded=0;entryX=0;entryY=0.75;entryDx=0;entryDy=0;exitX=0.5;exitY=0;exitDx=0;exitDy=0;" edge="1" parent="1" source="4bHquClLG_6svhKLVLeR-26" target="4bHquClLG_6svhKLVLeR-21">
          <mxGeometry width="160" relative="1" as="geometry">
            <mxPoint x="620" y="850" as="sourcePoint" />
            <mxPoint x="595" y="790" as="targetPoint" />
          </mxGeometry>
        </mxCell>
        <mxCell id="4bHquClLG_6svhKLVLeR-41" value="Extends" style="endArrow=block;endSize=16;endFill=0;html=1;rounded=0;entryX=0.413;entryY=0.976;entryDx=0;entryDy=0;exitX=0.5;exitY=0;exitDx=0;exitDy=0;entryPerimeter=0;" edge="1" parent="1" source="4bHquClLG_6svhKLVLeR-22" target="4bHquClLG_6svhKLVLeR-8">
          <mxGeometry width="160" relative="1" as="geometry">
            <mxPoint x="90" y="810" as="sourcePoint" />
            <mxPoint x="278" y="681.008" as="targetPoint" />
          </mxGeometry>
        </mxCell>
        <mxCell id="4bHquClLG_6svhKLVLeR-42" value="Extends" style="endArrow=block;endSize=16;endFill=0;html=1;rounded=0;entryX=1;entryY=0.5;entryDx=0;entryDy=0;exitX=0.5;exitY=0;exitDx=0;exitDy=0;" edge="1" parent="1" source="4bHquClLG_6svhKLVLeR-22" target="4bHquClLG_6svhKLVLeR-4">
          <mxGeometry width="160" relative="1" as="geometry">
            <mxPoint x="369" y="880" as="sourcePoint" />
            <mxPoint x="239.1199999999999" y="678.992" as="targetPoint" />
          </mxGeometry>
        </mxCell>
        <mxCell id="4bHquClLG_6svhKLVLeR-43" value="" style="endArrow=block;dashed=1;endFill=0;endSize=12;html=1;rounded=0;entryX=0;entryY=0.75;entryDx=0;entryDy=0;exitX=0.5;exitY=0;exitDx=0;exitDy=0;" edge="1" parent="1" source="4bHquClLG_6svhKLVLeR-22" target="4bHquClLG_6svhKLVLeR-21">
          <mxGeometry width="160" relative="1" as="geometry">
            <mxPoint x="90" y="810" as="sourcePoint" />
            <mxPoint x="430" y="722.5" as="targetPoint" />
          </mxGeometry>
        </mxCell>
      </root>
    </mxGraphModel>
  </diagram>
</mxfile>
